# 3ds Max Wavefront OBJ Exporter v0.97b - (c)2007 guruware
# File Created: 22.02.2012 20:18:07

#
# object Layer0_001
#

v  -11.3750 39.0402 -20.7219
v  -11.3750 37.2780 -20.7219
v  -11.3750 37.2780 -19.3880
v  -11.3750 51.4475 -8.9911
v  -11.3750 51.4475 -5.9911
v  0.0000 51.4475 -8.9911
v  -4.7900 49.6756 -10.6665
v  -8.1250 45.6798 -14.4443
v  -9.6875 45.6798 -14.4443
v  -9.6875 39.0402 -20.7219
v  -9.6875 39.0402 -25.7219
v  -9.6875 39.0402 -47.1209
v  -11.3750 39.0402 -47.1209
v  -11.3750 39.0402 -25.7219
v  -9.6875 47.6690 -54.6602
v  -11.3750 47.6690 -54.6602
v  -9.6875 47.6690 -80.8196
v  -11.3750 47.6690 -80.8196
v  -9.6875 60.9671 -90.0746
v  -11.3750 60.9671 -90.0746
v  11.3750 62.0273 -90.8125
v  -11.3750 62.0273 -90.8125
v  9.6875 60.9671 -90.0746
v  11.3750 60.9671 -90.0746
v  -3.2630 73.4771 -90.0746
v  3.2630 73.4771 -90.0746
v  6.6993 72.0244 -90.0746
v  -6.6993 72.0244 -90.0746
v  9.6875 67.3691 -90.0746
v  -9.6875 67.3691 -90.0746
v  -8.1250 51.2323 -36.2162
v  -8.1250 56.7848 -57.9881
v  -9.6875 56.7848 -57.9881
v  -4.7900 62.2764 -32.3733
v  0.0000 64.2770 -31.6772
v  -4.7900 70.5772 -61.5928
v  0.0000 72.6021 -62.1220
v  -6.6993 72.0244 -61.9710
v  -9.6875 67.3691 -60.7543
v  -3.2630 73.4771 -62.3507
v  -35.8125 55.7188 -34.4656
v  -30.1250 50.0313 -34.4656
v  -30.1250 50.0313 -29.2499
v  -35.8125 55.7188 -29.2499
v  -29.0818 50.4633 -28.2156
v  -30.1250 50.0313 -28.2156
v  -30.1250 40.4243 -28.2156
v  -30.1250 29.5951 -28.2156
v  -30.1250 27.6571 -28.2156
v  -29.0818 27.1822 -28.2156
v  -35.8125 22.7057 -29.2499
v  -35.8125 22.7057 -34.4656
v  -47.1875 22.7057 -34.4656
v  -47.1875 22.7057 -29.2499
v  -52.8750 27.6571 -34.4656
v  -52.8750 27.6571 -29.2499
v  -52.8750 50.0313 -34.4656
v  -52.8750 50.0313 -29.2499
v  -47.1875 55.7188 -29.2499
v  -47.1875 55.7188 -34.4656
v  -47.1875 55.7188 -28.2156
v  -47.6196 56.7619 -28.2156
v  -53.9182 50.4633 -28.2156
v  -52.8750 50.0313 -28.2156
v  -47.1875 22.7057 -28.2156
v  -52.8750 27.6571 -28.2156
v  -53.9182 27.1822 -28.2156
v  -47.5780 21.6625 -28.2156
v  -30.1250 5.4793 19.7742
v  -35.8125 0.0000 20.9165
v  -35.8125 22.7057 -28.2156
v  -30.1250 5.4793 56.1563
v  -30.1250 50.0313 56.1563
v  -35.8125 55.7188 56.1563
v  -35.8125 0.0000 56.1563
v  -47.1875 55.7188 56.1563
v  -47.1875 0.0000 56.1563
v  -30.1250 27.6571 -29.2499
v  -29.0818 5.0358 52.3125
v  -29.0818 5.0358 60.0000
v  -35.3917 -1.0432 60.0000
v  -35.3917 -1.0432 52.3125
v  -29.0818 50.4633 52.3125
v  -29.0818 50.4633 60.0000
v  -35.3804 56.7619 52.3125
v  -35.3804 56.7619 60.0000
v  -52.8750 50.0313 56.1563
v  -52.8750 5.4793 56.1563
v  -30.1250 50.0313 52.3125
v  -35.8125 55.7188 -28.2156
v  -35.8125 55.7188 52.3125
v  -30.1250 5.4793 52.3125
v  -35.8125 0.0000 52.3125
v  -35.8125 0.0000 60.0000
v  -47.1875 0.0000 60.0000
v  -30.1250 5.4793 60.0000
v  -30.1250 50.0313 60.0000
v  -35.8125 55.7188 60.0000
v  -47.1875 55.7188 60.0000
v  -35.3804 56.7619 -28.2156
v  -35.3804 56.7619 -34.4656
v  -47.6196 56.7619 -34.4656
v  -29.0818 50.4633 -34.4656
v  -29.0818 27.1822 -34.4656
v  -35.4220 21.6625 -28.2156
v  -35.4220 21.6625 -34.4656
v  -30.1250 27.6571 -34.4656
v  -47.5780 21.6625 -34.4656
v  -53.9182 27.1822 -34.4656
v  -53.9182 50.4633 -34.4656
v  -47.1875 0.0000 20.9165
v  -52.8750 5.4793 19.7742
v  -47.6196 56.7619 60.0000
v  -53.9182 50.4633 60.0000
v  -52.8750 50.0313 60.0000
v  -52.8750 5.4793 60.0000
v  -53.9182 5.0358 60.0000
v  -47.6083 -1.0432 60.0000
v  -47.6196 56.7619 52.3125
v  -47.6083 -1.0432 52.3125
v  -53.9182 5.0358 52.3125
v  -53.9182 50.4633 52.3125
v  -47.1875 55.7188 52.3125
v  -52.8750 50.0313 52.3125
v  -52.8750 5.4793 52.3125
v  -47.1875 0.0000 52.3125
v  -9.6875 41.7902 -25.7219
v  -9.6875 43.8125 -23.2219
v  -9.6875 41.7902 -20.7219
v  -11.3750 41.7902 -20.7219
v  -11.3750 41.7902 -25.7219
v  -11.3750 43.8125 -23.2219
v  -11.3750 59.1563 -90.8125
v  -11.3750 46.1263 -81.7441
v  -11.3750 46.1263 -55.8691
v  -11.3750 37.2780 -48.1380
v  -11.3750 37.2780 -25.7219
v  -30.1250 40.4243 -11.9952
v  -30.1250 29.5951 -11.9952
v  -30.1250 45.2778 -17.9952
v  8.1250 51.2323 -36.2162
v  4.7900 62.2764 -32.3733
v  8.1250 45.6798 -14.4443
v  11.3750 39.0402 -25.7219
v  11.3750 39.0402 -47.1209
v  9.6875 39.0402 -47.1209
v  9.6875 39.0402 -25.7219
v  9.6875 47.6690 -80.8196
v  11.3750 47.6690 -80.8196
v  11.3750 59.1563 -90.8125
v  11.3750 46.1263 -81.7441
v  11.3750 47.6690 -54.6602
v  9.6875 47.6690 -54.6602
v  9.6875 45.6798 -14.4443
v  4.7900 49.6756 -10.6665
v  11.3750 51.4475 -8.9911
v  11.3750 39.0402 -20.7219
v  9.6875 39.0402 -20.7219
v  11.3750 51.4475 -5.9911
v  11.3750 46.1263 -55.8691
v  11.3750 37.2780 -48.1380
v  11.3750 37.2780 -25.7219
v  8.1250 56.7848 -57.9881
v  9.6875 56.7848 -57.9881
v  9.6875 67.3691 -60.7543
v  4.7900 70.5772 -61.5928
v  6.6993 72.0244 -61.9710
v  3.2630 73.4771 -62.3507
v  52.8750 5.4793 60.0000
v  52.8750 5.4793 56.1563
v  47.1875 0.0000 56.1563
v  47.1875 0.0000 60.0000
v  52.8750 50.0313 56.1563
v  52.8750 50.0313 60.0000
v  47.1875 55.7188 60.0000
v  47.1875 55.7188 56.1563
v  53.9182 27.1822 -34.4656
v  53.9182 27.1822 -28.2156
v  47.5780 21.6625 -28.2156
v  47.5780 21.6625 -34.4656
v  47.1875 0.0000 20.9165
v  47.1875 0.0000 52.3125
v  35.8125 0.0000 52.3125
v  35.8125 0.0000 20.9165
v  11.3750 41.7902 -25.7219
v  30.1250 40.4243 -28.2156
v  30.1250 29.5951 -28.2156
v  52.8750 5.4793 19.7742
v  52.8750 5.4793 52.3125
v  52.8750 50.0313 52.3125
v  53.9182 50.4633 52.3125
v  53.9182 5.0358 52.3125
v  47.6083 -1.0432 52.3125
v  47.6083 -1.0432 60.0000
v  35.3917 -1.0432 60.0000
v  35.3917 -1.0432 52.3125
v  11.3750 37.2780 -19.3880
v  11.3750 37.2780 -20.7219
v  52.8750 27.6571 -28.2156
v  52.8750 50.0313 -28.2156
v  47.1875 55.7188 52.3125
v  47.6196 56.7619 52.3125
v  47.1875 55.7188 -28.2156
v  35.3804 56.7619 52.3125
v  35.8125 55.7188 52.3125
v  35.8125 55.7188 -28.2156
v  53.9182 50.4633 60.0000
v  47.6196 56.7619 60.0000
v  53.9182 50.4633 -28.2156
v  53.9182 50.4633 -34.4656
v  47.6196 56.7619 -34.4656
v  47.6196 56.7619 -28.2156
v  47.1875 22.7057 -29.2499
v  47.1875 22.7057 -34.4656
v  35.8125 22.7057 -34.4656
v  35.8125 22.7057 -29.2499
v  52.8750 27.6571 -29.2499
v  52.8750 27.6571 -34.4656
v  52.8750 50.0313 -34.4656
v  52.8750 50.0313 -29.2499
v  30.1250 50.0313 -28.2156
v  29.0818 50.4633 -28.2156
v  30.1250 27.6571 -28.2156
v  29.0818 27.1822 -28.2156
v  30.1250 50.0313 -34.4656
v  35.8125 55.7188 -34.4656
v  35.8125 55.7188 -29.2499
v  30.1250 50.0313 -29.2499
v  47.1875 55.7188 -34.4656
v  47.1875 55.7188 -29.2499
v  47.1875 22.7057 -28.2156
v  35.8125 22.7057 -28.2156
v  30.1250 5.4793 19.7742
v  35.8125 55.7188 56.1563
v  30.1250 50.0313 56.1563
v  30.1250 5.4793 56.1563
v  35.8125 0.0000 56.1563
v  11.3750 43.8125 -23.2219
v  30.1250 45.2778 -17.9952
v  30.1250 29.5951 -11.9952
v  29.0818 5.0358 60.0000
v  29.0818 5.0358 52.3125
v  29.0818 50.4633 52.3125
v  29.0818 50.4633 60.0000
v  30.1250 27.6571 -29.2499
v  35.3804 56.7619 60.0000
v  30.1250 50.0313 52.3125
v  30.1250 5.4793 52.3125
v  30.1250 40.4243 -11.9952
v  11.3750 41.7902 -20.7219
v  35.8125 0.0000 60.0000
v  30.1250 5.4793 60.0000
v  9.6875 41.7902 -20.7219
v  9.6875 43.8125 -23.2219
v  9.6875 41.7902 -25.7219
v  35.8125 55.7188 60.0000
v  30.1250 50.0313 60.0000
v  35.3804 56.7619 -28.2156
v  35.3804 56.7619 -34.4656
v  29.0818 50.4633 -34.4656
v  29.0818 27.1822 -34.4656
v  35.4220 21.6625 -34.4656
v  35.4220 21.6625 -28.2156
v  53.9182 5.0358 60.0000
v  30.1250 27.6571 -34.4656
# 265 vertices

vn -1.0000 0.0000 -0.0000
vn -0.0000 0.6870 -0.7266
vn 0.0000 1.0000 -0.0000
vn 0.0000 0.6580 0.7530
vn 0.0000 0.5712 0.8208
vn -0.0000 -0.0000 -1.0000
vn 0.0000 0.9690 0.2471
vn -0.9614 0.2667 0.0680
vn -0.8487 0.4574 0.2655
vn -0.3990 0.7982 0.4514
vn -0.4440 0.7749 0.4498
vn -0.9661 0.2503 0.0638
vn -0.9615 0.2642 0.0751
vn -0.3541 0.9021 0.2467
vn -0.4039 0.8800 0.2500
vn -0.8415 0.5402 0.0000
vn -0.3894 0.9211 0.0000
vn -0.7071 -0.7071 -0.0000
vn 0.0000 0.0000 1.0000
vn 0.6566 0.7542 -0.0000
vn 1.0000 0.0000 -0.0000
vn 0.0000 -1.0000 -0.0000
vn 0.6200 -0.7122 -0.3291
vn 0.6938 -0.7202 -0.0000
vn 0.7071 0.7071 -0.0000
vn -0.6938 0.7202 0.0000
vn 0.6566 -0.7542 -0.0000
vn -0.6566 0.7542 -0.0000
vn 0.7071 -0.7071 -0.0000
vn 0.0000 -0.9078 -0.4195
vn -0.6200 -0.7122 -0.3291
vn -0.6938 -0.7202 -0.0000
vn -0.7071 0.7071 -0.0000
vn 0.6938 0.7202 0.0000
vn -0.6566 -0.7542 -0.0000
vn 0.0000 0.7775 -0.6289
vn 0.0000 0.7775 0.6289
vn 0.4220 0.0000 0.9066
vn 0.2298 0.7567 0.6121
vn 0.3792 -0.9253 -0.0000
vn 0.1318 -0.0000 -0.9913
vn -0.0489 0.9022 -0.4285
vn 0.0270 0.7772 -0.6287
vn 0.9614 0.2667 0.0680
vn -0.0000 -0.5712 -0.8208
vn 0.8487 0.4574 0.2655
vn -0.0000 0.2529 0.9675
vn -0.0000 -0.6580 -0.7530
vn -0.1318 0.0000 -0.9913
vn 0.8415 0.5402 -0.0000
vn -0.0000 -0.6870 0.7266
vn 0.9661 0.2503 0.0638
vn 0.9615 0.2642 0.0751
vn 0.0489 0.9022 -0.4285
vn -0.3792 -0.9253 -0.0000
vn -0.0270 0.7772 -0.6287
vn -0.4220 0.0000 0.9066
vn -0.2298 0.7567 0.6121
vn 0.3894 0.9211 -0.0000
vn 0.4039 0.8800 0.2500
vn 0.3541 0.9021 0.2467
vn 0.3990 0.7982 0.4514
vn 0.4440 0.7749 0.4498
# 63 vertex normals

vt 0.0000 0.0000 0.0000
# 1 texture coords

g Layer0_001
s off
f 1/1/1 2/1/1 3/1/1 4/1/1 
f 4/1/1 3/1/1 5/1/1 
f 4/1/2 6/1/2 7/1/2 8/1/2 
f 4/1/2 8/1/2 9/1/2 10/1/2 
f 4/1/2 10/1/2 1/1/2 
f 11/1/3 12/1/3 13/1/3 14/1/3 
f 15/1/4 16/1/4 13/1/4 12/1/4 
f 15/1/3 17/1/3 18/1/3 16/1/3 
f 19/1/5 20/1/5 18/1/5 17/1/5 
f 21/1/5 22/1/5 20/1/5 19/1/5 
f 21/1/5 19/1/5 23/1/5 24/1/5 
f 25/1/6 26/1/6 27/1/6 28/1/6 
f 28/1/6 27/1/6 29/1/6 30/1/6 
f 19/1/6 30/1/6 29/1/6 23/1/6 
f 8/1/7 31/1/7 32/1/7 33/1/7 
f 8/1/7 33/1/7 9/1/7 
f 31/1/8 8/1/8 34/1/8 
f 34/1/9 8/1/9 7/1/9 
f 35/1/10 34/1/10 6/1/10 
f 6/1/11 34/1/11 7/1/11 
f 36/1/12 32/1/12 31/1/12 
f 36/1/13 31/1/13 34/1/13 
f 37/1/14 36/1/14 35/1/14 
f 35/1/15 36/1/15 34/1/15 
f 38/1/16 28/1/16 30/1/16 39/1/16 
f 40/1/17 25/1/17 28/1/17 38/1/17 
f 41/1/18 42/1/18 43/1/18 44/1/18 
f 45/1/19 46/1/19 47/1/19 48/1/19 
f 45/1/19 48/1/19 49/1/19 50/1/19 
f 51/1/3 52/1/3 53/1/3 54/1/3 
f 54/1/20 53/1/20 55/1/20 56/1/20 
f 55/1/21 57/1/21 58/1/21 56/1/21 
f 41/1/22 44/1/22 59/1/22 60/1/22 
f 61/1/19 62/1/19 63/1/19 64/1/19 
f 65/1/19 66/1/19 67/1/19 68/1/19 
f 49/1/23 69/1/23 70/1/23 71/1/23 
f 72/1/19 73/1/19 74/1/19 75/1/19 
f 74/1/19 76/1/19 77/1/19 75/1/19 
f 59/1/6 44/1/6 51/1/6 54/1/6 
f 44/1/6 43/1/6 78/1/6 51/1/6 
f 56/1/6 58/1/6 59/1/6 54/1/6 
f 79/1/24 80/1/24 81/1/24 82/1/24 
f 79/1/21 83/1/21 84/1/21 80/1/21 
f 83/1/25 85/1/25 86/1/25 84/1/25 
f 76/1/19 87/1/19 88/1/19 77/1/19 
f 89/1/25 46/1/25 90/1/25 91/1/25 
f 91/1/6 85/1/6 83/1/6 89/1/6 
f 92/1/6 89/1/6 83/1/6 79/1/6 
f 69/1/24 92/1/24 93/1/24 70/1/24 
f 93/1/6 92/1/6 79/1/6 82/1/6 
f 94/1/3 75/1/3 77/1/3 95/1/3 
f 96/1/26 72/1/26 75/1/26 94/1/26 
f 73/1/1 72/1/1 96/1/1 97/1/1 
f 73/1/18 97/1/18 98/1/18 74/1/18 
f 74/1/22 98/1/22 99/1/22 76/1/22 
f 100/1/19 62/1/19 61/1/19 90/1/19 
f 100/1/3 101/1/3 102/1/3 62/1/3 
f 103/1/25 101/1/25 100/1/25 45/1/25 
f 104/1/21 103/1/21 45/1/21 50/1/21 
f 104/1/27 50/1/27 105/1/27 106/1/27 
f 41/1/6 102/1/6 101/1/6 103/1/6 
f 42/1/6 41/1/6 103/1/6 107/1/6 
f 107/1/6 103/1/6 104/1/6 52/1/6 
f 52/1/6 104/1/6 106/1/6 53/1/6 
f 53/1/6 106/1/6 108/1/6 109/1/6 
f 55/1/6 53/1/6 109/1/6 110/1/6 
f 57/1/6 55/1/6 110/1/6 60/1/6 
f 60/1/6 110/1/6 102/1/6 41/1/6 
f 106/1/22 105/1/22 68/1/22 108/1/22 
f 78/1/28 107/1/28 52/1/28 51/1/28 
f 42/1/1 107/1/1 78/1/1 43/1/1 
f 45/1/19 100/1/19 90/1/19 46/1/19 
f 50/1/19 49/1/19 71/1/19 105/1/19 
f 71/1/19 65/1/19 68/1/19 105/1/19 
f 57/1/29 60/1/29 59/1/29 58/1/29 
f 66/1/19 64/1/19 63/1/19 67/1/19 
f 71/1/30 70/1/30 111/1/30 65/1/30 
f 65/1/31 111/1/31 112/1/31 66/1/31 
f 99/1/19 86/1/19 113/1/19 114/1/19 
f 115/1/19 99/1/19 114/1/19 116/1/19 
f 116/1/19 114/1/19 117/1/19 95/1/19 
f 95/1/19 117/1/19 118/1/19 81/1/19 
f 94/1/19 95/1/19 81/1/19 80/1/19 
f 96/1/19 94/1/19 80/1/19 84/1/19 
f 97/1/19 96/1/19 84/1/19 98/1/19 
f 98/1/19 84/1/19 86/1/19 99/1/19 
f 86/1/3 85/1/3 119/1/3 113/1/3 
f 120/1/32 118/1/32 117/1/32 121/1/32 
f 122/1/1 121/1/1 117/1/1 114/1/1 
f 113/1/33 119/1/33 122/1/33 114/1/33 
f 82/1/22 81/1/22 118/1/22 120/1/22 
f 91/1/3 90/1/3 61/1/3 123/1/3 
f 119/1/6 85/1/6 91/1/6 123/1/6 
f 61/1/33 64/1/33 124/1/33 123/1/33 
f 122/1/6 119/1/6 123/1/6 124/1/6 
f 64/1/1 66/1/1 112/1/1 125/1/1 
f 64/1/1 125/1/1 124/1/1 
f 122/1/6 124/1/6 125/1/6 121/1/6 
f 111/1/32 126/1/32 125/1/32 112/1/32 
f 121/1/6 125/1/6 126/1/6 120/1/6 
f 70/1/22 93/1/22 126/1/22 111/1/22 
f 126/1/6 93/1/6 82/1/6 120/1/6 
f 95/1/34 77/1/34 88/1/34 116/1/34 
f 88/1/21 87/1/21 115/1/21 116/1/21 
f 87/1/29 76/1/29 99/1/29 115/1/29 
f 102/1/33 110/1/33 63/1/33 62/1/33 
f 110/1/1 109/1/1 67/1/1 63/1/1 
f 108/1/35 68/1/35 67/1/35 109/1/35 
f 30/1/1 19/1/1 17/1/1 39/1/1 
f 33/1/1 39/1/1 17/1/1 15/1/1 
f 33/1/1 15/1/1 12/1/1 11/1/1 
f 33/1/1 11/1/1 127/1/1 128/1/1 
f 9/1/1 33/1/1 128/1/1 129/1/1 
f 9/1/1 129/1/1 10/1/1 
f 129/1/19 130/1/19 1/1/19 10/1/19 
f 128/1/36 127/1/36 131/1/36 132/1/36 
f 131/1/6 127/1/6 11/1/6 14/1/6 
f 20/1/1 22/1/1 133/1/1 134/1/1 
f 18/1/1 20/1/1 134/1/1 135/1/1 
f 16/1/1 18/1/1 135/1/1 136/1/1 
f 13/1/1 16/1/1 136/1/1 137/1/1 
f 13/1/1 137/1/1 14/1/1 
f 129/1/37 128/1/37 132/1/37 130/1/37 
f 1/1/38 130/1/38 138/1/38 2/1/38 
f 2/1/38 138/1/38 139/1/38 
f 130/1/39 132/1/39 140/1/39 138/1/39 
f 137/1/40 2/1/40 139/1/40 48/1/40 
f 49/1/21 48/1/21 139/1/21 69/1/21 
f 69/1/21 139/1/21 138/1/21 89/1/21 
f 89/1/21 138/1/21 140/1/21 46/1/21 
f 140/1/21 47/1/21 46/1/21 
f 69/1/21 89/1/21 92/1/21 
f 47/1/41 131/1/41 14/1/41 137/1/41 
f 47/1/41 137/1/41 48/1/41 
f 132/1/42 47/1/42 140/1/42 
f 131/1/43 47/1/43 132/1/43 
f 141/1/44 142/1/44 143/1/44 
f 144/1/3 145/1/3 146/1/3 147/1/3 
f 24/1/5 23/1/5 148/1/5 149/1/5 
f 133/1/45 150/1/45 151/1/45 134/1/45 
f 152/1/3 149/1/3 148/1/3 153/1/3 
f 154/1/2 143/1/2 155/1/2 156/1/2 
f 155/1/2 6/1/2 156/1/2 
f 154/1/2 156/1/2 157/1/2 158/1/2 
f 159/1/3 156/1/3 6/1/3 4/1/3 
f 159/1/3 4/1/3 5/1/3 
f 151/1/22 160/1/22 135/1/22 134/1/22 
f 142/1/46 155/1/46 143/1/46 
f 150/1/21 21/1/21 24/1/21 151/1/21 
f 151/1/21 24/1/21 149/1/21 160/1/21 
f 160/1/21 149/1/21 152/1/21 161/1/21 
f 161/1/21 152/1/21 145/1/21 144/1/21 
f 161/1/21 144/1/21 162/1/21 
f 163/1/47 164/1/47 165/1/47 166/1/47 
f 166/1/47 165/1/47 167/1/47 37/1/47 
f 37/1/47 167/1/47 168/1/47 40/1/47 
f 37/1/47 40/1/47 38/1/47 36/1/47 
f 36/1/47 38/1/47 39/1/47 33/1/47 
f 36/1/47 33/1/47 32/1/47 
f 154/1/7 164/1/7 163/1/7 141/1/7 
f 154/1/7 141/1/7 143/1/7 
f 22/1/6 21/1/6 150/1/6 133/1/6 
f 169/1/26 170/1/26 171/1/26 172/1/26 
f 173/1/18 174/1/18 175/1/18 176/1/18 
f 177/1/27 178/1/27 179/1/27 180/1/27 
f 173/1/1 170/1/1 169/1/1 174/1/1 
f 181/1/22 182/1/22 183/1/22 184/1/22 
f 135/1/48 160/1/48 161/1/48 136/1/48 
f 152/1/4 153/1/4 146/1/4 145/1/4 
f 144/1/49 185/1/49 186/1/49 162/1/49 
f 162/1/49 186/1/49 187/1/49 
f 188/1/24 189/1/24 182/1/24 181/1/24 
f 189/1/6 190/1/6 191/1/6 192/1/6 
f 29/1/50 27/1/50 167/1/50 165/1/50 
f 193/1/22 194/1/22 195/1/22 196/1/22 
f 197/1/21 198/1/21 157/1/21 156/1/21 
f 197/1/21 156/1/21 159/1/21 
f 182/1/6 189/1/6 192/1/6 193/1/6 
f 183/1/6 182/1/6 193/1/6 196/1/6 
f 188/1/21 199/1/21 200/1/21 190/1/21 
f 188/1/21 190/1/21 189/1/21 
f 162/1/22 198/1/22 197/1/22 161/1/22 
f 161/1/22 197/1/22 3/1/22 2/1/22 
f 161/1/22 2/1/22 137/1/22 136/1/22 
f 201/1/6 202/1/6 191/1/6 190/1/6 
f 190/1/25 200/1/25 203/1/25 201/1/25 
f 204/1/6 202/1/6 201/1/6 205/1/6 
f 201/1/3 203/1/3 206/1/3 205/1/3 
f 159/1/51 5/1/51 3/1/51 197/1/51 
f 207/1/25 191/1/25 202/1/25 208/1/25 
f 209/1/25 210/1/25 211/1/25 212/1/25 
f 177/1/21 210/1/21 209/1/21 178/1/21 
f 166/1/52 141/1/52 163/1/52 
f 213/1/3 214/1/3 215/1/3 216/1/3 
f 166/1/53 142/1/53 141/1/53 
f 217/1/28 218/1/28 214/1/28 213/1/28 
f 219/1/1 218/1/1 217/1/1 220/1/1 
f 186/1/19 221/1/19 222/1/19 187/1/19 
f 223/1/19 187/1/19 222/1/19 224/1/19 
f 225/1/29 226/1/29 227/1/29 228/1/29 
f 229/1/22 230/1/22 227/1/22 226/1/22 
f 209/1/19 212/1/19 203/1/19 200/1/19 
f 178/1/19 199/1/19 231/1/19 179/1/19 
f 232/1/31 184/1/31 233/1/31 223/1/31 
f 234/1/19 235/1/19 236/1/19 237/1/19 
f 186/1/54 238/1/54 239/1/54 
f 230/1/6 220/1/6 217/1/6 213/1/6 
f 176/1/19 234/1/19 237/1/19 171/1/19 
f 187/1/55 240/1/55 198/1/55 162/1/55 
f 186/1/56 185/1/56 238/1/56 
f 196/1/32 195/1/32 241/1/32 242/1/32 
f 243/1/1 242/1/1 241/1/1 244/1/1 
f 227/1/6 230/1/6 213/1/6 216/1/6 
f 245/1/6 228/1/6 227/1/6 216/1/6 
f 246/1/33 204/1/33 243/1/33 244/1/33 
f 221/1/1 186/1/1 239/1/1 247/1/1 
f 248/1/1 247/1/1 239/1/1 249/1/1 
f 233/1/1 248/1/1 249/1/1 240/1/1 
f 223/1/1 233/1/1 240/1/1 187/1/1 
f 170/1/19 173/1/19 176/1/19 171/1/19 
f 249/1/57 250/1/57 157/1/57 198/1/57 
f 249/1/57 198/1/57 240/1/57 
f 249/1/58 239/1/58 238/1/58 250/1/58 
f 251/1/34 237/1/34 236/1/34 252/1/34 
f 172/1/3 171/1/3 237/1/3 251/1/3 
f 242/1/6 248/1/6 183/1/6 196/1/6 
f 154/1/21 158/1/21 253/1/21 254/1/21 
f 164/1/21 154/1/21 254/1/21 255/1/21 
f 146/1/21 164/1/21 255/1/21 147/1/21 
f 164/1/21 146/1/21 153/1/21 148/1/21 
f 165/1/21 164/1/21 148/1/21 29/1/21 
f 148/1/21 23/1/21 29/1/21 
f 184/1/32 183/1/32 248/1/32 233/1/32 
f 255/1/6 185/1/6 144/1/6 147/1/6 
f 243/1/6 247/1/6 248/1/6 242/1/6 
f 167/1/59 27/1/59 26/1/59 168/1/59 
f 243/1/6 204/1/6 205/1/6 247/1/6 
f 205/1/33 206/1/33 221/1/33 247/1/33 
f 166/1/60 35/1/60 142/1/60 
f 176/1/22 175/1/22 256/1/22 234/1/22 
f 250/1/19 253/1/19 158/1/19 157/1/19 
f 166/1/61 37/1/61 35/1/61 
f 250/1/37 238/1/37 254/1/37 253/1/37 
f 234/1/29 256/1/29 257/1/29 235/1/29 
f 238/1/36 185/1/36 255/1/36 254/1/36 
f 212/1/19 258/1/19 206/1/19 203/1/19 
f 212/1/3 211/1/3 259/1/3 258/1/3 
f 258/1/33 259/1/33 260/1/33 222/1/33 
f 260/1/1 261/1/1 224/1/1 222/1/1 
f 262/1/35 263/1/35 224/1/35 261/1/35 
f 256/1/19 208/1/19 246/1/19 244/1/19 
f 257/1/19 256/1/19 244/1/19 252/1/19 
f 252/1/19 244/1/19 241/1/19 251/1/19 
f 251/1/19 241/1/19 195/1/19 172/1/19 
f 172/1/19 195/1/19 194/1/19 264/1/19 
f 169/1/19 172/1/19 264/1/19 207/1/19 
f 174/1/19 169/1/19 207/1/19 175/1/19 
f 175/1/19 207/1/19 208/1/19 256/1/19 
f 208/1/3 202/1/3 204/1/3 246/1/3 
f 229/1/6 259/1/6 211/1/6 210/1/6 
f 219/1/6 229/1/6 210/1/6 218/1/6 
f 218/1/6 210/1/6 177/1/6 214/1/6 
f 214/1/6 177/1/6 180/1/6 215/1/6 
f 215/1/6 180/1/6 262/1/6 261/1/6 
f 265/1/6 215/1/6 261/1/6 260/1/6 
f 225/1/6 265/1/6 260/1/6 226/1/6 
f 226/1/6 260/1/6 259/1/6 229/1/6 
f 206/1/19 258/1/19 222/1/19 221/1/19 
f 199/1/23 188/1/23 181/1/23 231/1/23 
f 168/1/3 26/1/3 25/1/3 40/1/3 
f 216/1/20 215/1/20 265/1/20 245/1/20 
f 192/1/21 191/1/21 207/1/21 264/1/21 
f 192/1/24 264/1/24 194/1/24 193/1/24 
f 231/1/19 232/1/19 263/1/19 179/1/19 
f 231/1/30 181/1/30 184/1/30 232/1/30 
f 209/1/19 200/1/19 199/1/19 178/1/19 
f 219/1/18 220/1/18 230/1/18 229/1/18 
f 236/1/21 235/1/21 257/1/21 252/1/21 
f 142/1/62 35/1/62 6/1/62 
f 142/1/63 6/1/63 155/1/63 
f 180/1/22 179/1/22 263/1/22 262/1/22 
f 265/1/21 225/1/21 228/1/21 245/1/21 
f 232/1/19 223/1/19 224/1/19 263/1/19 
# 243 polygons - 40 triangles

#
# object Layer0_002
#

